<svg width="64" height="64" viewBox="0 0 64 64" fill="none" xmlns="http://www.w3.org/2000/svg">
  <!-- House background -->
  <rect x="12" y="24" width="40" height="32" fill="#3B82F6" rx="2"/>
  
  <!-- Roof -->
  <path d="M32 8L56 24H8L32 8z" fill="#1E40AF"/>
  
  <!-- Roof shadow -->
  <path d="M32 8L56 24L52 24L32 12L12 24H8L32 8z" fill="#1D4ED8"/>
  
  <!-- Main door -->
  <rect x="26" y="36" width="12" height="20" fill="#FFFFFF" rx="1"/>
  
  <!-- Door handle -->
  <circle cx="34" cy="46" r="1" fill="#3B82F6"/>
  
  <!-- Left window -->
  <rect x="16" y="32" width="6" height="6" fill="#FFFFFF" rx="1"/>
  <line x1="19" y1="32" x2="19" y2="38" stroke="#3B82F6" stroke-width="0.5"/>
  <line x1="16" y1="35" x2="22" y2="35" stroke="#3B82F6" stroke-width="0.5"/>
  
  <!-- Right window -->
  <rect x="42" y="32" width="6" height="6" fill="#FFFFFF" rx="1"/>
  <line x1="45" y1="32" x2="45" y2="38" stroke="#3B82F6" stroke-width="0.5"/>
  <line x1="42" y1="35" x2="48" y2="35" stroke="#3B82F6" stroke-width="0.5"/>
  
  <!-- Chimney -->
  <rect x="44" y="12" width="4" height="8" fill="#6B7280"/>
  <rect x="43" y="12" width="6" height="2" fill="#4B5563"/>
</svg>